<?xml version="1.0" standalone="no"?>
<!DOCTYPE svg PUBLIC "-//W3C//DTD SVG 20010904//EN"
 "http://www.w3.org/TR/2001/REC-SVG-20010904/DTD/svg10.dtd">
<svg version="1.0" xmlns="http://www.w3.org/2000/svg"
 width="820.000000pt" height="764.000000pt" viewBox="0 0 820.000000 764.000000"
 preserveAspectRatio="xMidYMid meet">
<metadata>
Created by potrace 1.16, written by Peter Selinger 2001-2019
</metadata>
<g transform="translate(0.000000,764.000000) scale(0.100000,-0.100000)"
fill="#000000" stroke="none">
<path d="M1490 7186 c-69 -15 -127 -37 -167 -63 l-25 -16 53 -34 c63 -40 93
-41 155 -8 26 14 56 25 68 25 19 -1 18 -2 -6 -15 -15 -9 -31 -30 -38 -50 -10
-30 -9 -41 7 -73 28 -57 56 -66 144 -43 118 29 143 32 197 21 59 -13 133 -59
163 -102 l22 -30 -31 16 c-69 35 -183 11 -231 -50 -25 -32 -44 -95 -35 -118 7
-19 4 -19 47 -1 45 19 127 19 170 2 92 -39 137 -114 144 -241 13 -199 -35
-375 -182 -671 -78 -159 -585 -1062 -585 -1043 0 13 72 204 158 418 49 124
101 261 115 306 60 189 73 362 37 475 -20 63 -29 81 -124 244 -26 44 -57 113
-70 153 l-23 73 -24 -35 c-13 -20 -66 -73 -117 -117 -51 -45 -104 -100 -117
-123 -61 -104 -53 -271 30 -597 41 -163 65 -323 65 -441 0 -113 -15 -242 -31
-268 -7 -10 -7 -3 -3 20 4 19 7 89 7 155 -2 250 -90 427 -255 515 -234 125
-426 -112 -234 -289 23 -21 71 -66 107 -100 39 -36 80 -86 97 -119 74 -139
100 -347 82 -663 -28 -502 -22 -653 34 -870 83 -314 204 -546 381 -725 135
-136 262 -222 436 -293 172 -70 344 -106 558 -118 l118 -6 7 -126 c8 -150 19
-223 53 -356 66 -255 178 -453 357 -630 157 -154 318 -248 586 -338 270 -92
470 -108 980 -78 509 29 707 -28 878 -251 57 -76 112 -108 185 -108 109 0 171
67 171 185 0 78 -46 166 -119 233 -114 104 -231 141 -449 143 l-141 1 65 14
c90 18 287 17 401 -2 52 -9 164 -34 250 -55 231 -56 372 -75 462 -60 97 16
137 42 235 152 45 52 98 105 118 118 l35 24 -73 23 c-40 13 -109 45 -153 70
-232 136 -275 150 -440 141 -158 -9 -292 -48 -617 -181 -133 -54 -376 -146
-387 -146 -3 0 188 111 424 246 465 265 752 413 910 467 176 61 406 74 507 30
105 -47 158 -183 113 -290 -19 -45 -9 -57 39 -48 111 21 177 151 132 260 l-15
35 29 -22 c34 -25 73 -79 90 -123 18 -46 14 -142 -10 -227 -25 -93 -17 -122
42 -151 32 -16 43 -17 73 -7 20 7 41 23 50 38 13 24 14 25 15 6 0 -12 -12 -43
-26 -70 -35 -64 -33 -92 10 -155 l34 -51 30 58 c35 71 49 124 57 224 14 161
-47 321 -169 445 -61 61 -90 81 -177 123 -205 99 -406 115 -696 56 -245 -50
-498 -165 -1193 -542 -168 -91 -339 -181 -380 -200 -77 -35 -244 -102 -256
-102 -3 0 22 19 57 42 86 56 254 226 316 318 253 377 327 868 183 1213 -60
144 -138 256 -261 371 -69 65 -187 154 -192 144 -1 -1 -15 -30 -32 -63 -22
-44 -70 -101 -175 -210 -160 -165 -191 -213 -198 -307 -6 -75 23 -168 98 -317
106 -213 143 -345 142 -511 -1 -263 -139 -460 -408 -580 -352 -159 -717 -119
-1022 111 -102 77 -216 240 -286 411 -20 48 -36 92 -36 98 0 6 17 -8 38 -32
95 -110 216 -193 350 -239 l53 -18 115 57 c67 33 112 62 110 68 -3 7 -35 55
-73 107 l-68 94 -71 6 c-135 12 -334 88 -399 152 -58 58 -125 222 -125 305 0
24 4 26 103 42 236 38 486 145 670 285 99 75 283 260 357 358 117 155 215 346
260 508 25 88 50 246 49 307 -1 38 -3 32 -15 -36 -49 -296 -199 -570 -443
-815 -165 -165 -278 -250 -436 -329 -161 -80 -361 -141 -500 -152 l-40 -3 3
40 c5 60 40 217 68 304 102 315 356 637 669 846 171 115 364 195 552 229 75
13 76 14 28 15 -175 4 -472 -94 -674 -221 -169 -105 -376 -300 -504 -473 -122
-165 -217 -388 -259 -610 -11 -60 -22 -116 -24 -122 -5 -17 -37 -16 -109 2
-133 35 -232 101 -274 183 -49 97 -100 280 -102 360 0 35 -5 41 -95 105 -53
38 -101 70 -108 73 -6 2 -35 -43 -68 -110 l-57 -115 18 -53 c42 -122 109 -224
209 -320 38 -38 66 -68 60 -68 -22 0 -189 76 -262 118 -168 101 -267 207 -351
377 -109 223 -129 460 -60 699 118 406 390 606 750 552 124 -18 243 -60 406
-142 173 -86 238 -107 314 -101 34 2 76 12 95 22 19 10 104 89 190 175 127
129 166 162 217 186 34 16 62 33 62 38 2 20 -118 172 -185 236 -276 262 -628
344 -1044 243 -350 -85 -627 -273 -832 -563 -15 -21 -14 -15 3 35 44 123 120
278 281 575 394 727 494 950 550 1233 28 143 30 365 5 472 -76 318 -293 519
-572 531 -54 2 -116 -2 -155 -10z"/>
<path d="M2690 5541 c-28 -13 -76 -16 -253 -17 -120 -1 -234 -5 -254 -9 -100
-19 -210 -116 -294 -261 -25 -43 -121 -207 -211 -364 -91 -157 -176 -303 -189
-325 -21 -36 -15 -33 60 38 45 42 126 106 179 141 177 118 306 169 592 236
231 54 318 98 360 180 8 14 16 87 21 175 4 82 12 165 19 183 7 18 11 34 9 36
-2 2 -20 -4 -39 -13z"/>
<path d="M3630 4399 c-234 -20 -383 -122 -494 -339 -51 -99 -72 -163 -120
-355 -19 -77 -43 -160 -54 -185 l-20 -45 6 67 c6 85 -14 143 -67 191 -51 46
-99 61 -177 54 -161 -12 -323 -145 -419 -342 -60 -123 -85 -218 -92 -350 -6
-138 11 -229 67 -341 59 -121 174 -221 298 -258 20 -7 22 -4 22 32 0 65 29
211 61 307 83 249 287 537 502 713 291 238 685 389 988 380 l94 -3 3 -103 c10
-373 -227 -865 -551 -1143 -162 -139 -381 -270 -557 -333 -95 -35 -224 -66
-272 -66 -66 0 -70 -5 -47 -62 90 -229 338 -354 627 -318 280 35 517 179 611
372 67 137 61 239 -19 319 -55 55 -108 74 -187 66 -29 -3 -53 -4 -53 -2 0 7
156 55 245 76 393 92 589 241 652 495 27 112 22 323 -12 524 -25 145 -28 192
-29 381 l-1 215 -165 -4 c-162 -4 -258 4 -510 42 -128 19 -228 24 -330 15z"/>
<path d="M1060 3258 c1 -201 35 -367 109 -523 154 -323 462 -507 926 -553 50
-5 72 -10 50 -11 -22 0 -110 -5 -195 -10 -85 -6 -221 -13 -302 -17 l-146 -6
-86 -129 -86 -129 33 -13 c17 -7 82 -31 143 -52 l111 -39 314 127 c172 70 305
119 294 108 -11 -10 -256 -191 -545 -401 -289 -210 -527 -384 -529 -386 -6 -5
-138 -498 -135 -502 3 -5 474 118 495 129 8 4 193 251 410 548 217 296 395
536 396 533 2 -4 -53 -144 -120 -311 l-123 -304 49 -138 c27 -77 55 -139 61
-138 6 0 65 37 131 82 l120 82 17 311 c16 314 24 403 27 305 2 -83 30 -254 56
-344 107 -371 361 -605 740 -682 130 -27 385 -44 385 -26 0 6 -8 11 -17 11
-39 0 -261 83 -363 136 -149 75 -262 158 -369 269 -97 101 -154 182 -221 314
-77 154 -142 391 -155 566 -3 44 -8 99 -11 123 l-5 42 -56 0 c-247 0 -662 135
-888 289 -144 98 -299 289 -383 472 -45 96 -95 240 -112 323 -6 31 -13 56 -16
56 -2 0 -4 -51 -4 -112z"/>
<path d="M5810 2418 c-14 -5 -93 -14 -176 -18 -166 -9 -191 -16 -241 -74 -42
-47 -67 -118 -124 -348 -27 -108 -59 -225 -72 -260 -61 -161 -173 -339 -295
-469 -42 -46 -72 -80 -67 -77 27 15 585 340 690 401 141 83 224 157 263 236
27 55 27 59 32 301 5 199 9 252 22 283 18 40 13 44 -32 25z"/>
</g>
</svg>
