<?xml version="1.0" standalone="no"?>
<!DOCTYPE svg PUBLIC "-//W3C//DTD SVG 20010904//EN"
 "http://www.w3.org/TR/2001/REC-SVG-20010904/DTD/svg10.dtd">
<svg version="1.0" xmlns="http://www.w3.org/2000/svg"
 width="840.000000pt" height="859.000000pt" viewBox="0 0 840.000000 859.000000"
 preserveAspectRatio="xMidYMid meet">
<metadata>
Created by potrace 1.16, written by Peter Selinger 2001-2019
</metadata>
<g transform="translate(0.000000,859.000000) scale(0.100000,-0.100000)"
fill="#000000" stroke="none">
<path d="M4525 8489 c-58 -31 -74 -47 -108 -114 -31 -59 -31 -62 -33 -220 l-1
-160 -64 -66 c-35 -37 -82 -97 -105 -135 -26 -44 -49 -70 -63 -74 l-22 -5 21
-22 c11 -13 40 -33 63 -45 40 -22 52 -23 262 -23 l220 1 100 43 c187 82 230
99 257 106 24 6 27 4 37 -32 6 -21 11 -48 11 -60 0 -24 15 -28 56 -17 20 5 20
8 8 72 -7 37 -13 73 -14 79 0 7 27 30 60 50 56 36 73 53 50 53 -5 0 -54 -22
-107 -49 -54 -26 -129 -58 -168 -71 -75 -23 -190 -32 -190 -14 0 5 32 37 70
71 39 33 124 113 190 177 l120 117 -44 -6 -44 -6 17 26 16 25 -37 1 c-21 0
-32 3 -25 6 19 7 14 25 -6 19 -9 -3 -36 -2 -59 2 l-43 7 75 55 c41 30 77 61
80 68 8 20 -24 26 -44 8 -25 -22 -109 -22 -118 1 -6 16 31 58 73 81 62 35
-111 36 -246 2 -52 -13 -108 -32 -123 -43 -40 -27 -138 -35 -160 -13 -23 24
-8 50 49 84 40 25 55 42 36 42 -4 0 -25 -9 -47 -21z"/>
<path d="M5100 8503 c0 -30 35 -95 62 -115 38 -27 67 -90 68 -146 l0 -44 31
26 c32 28 49 33 49 15 0 -6 9 -8 20 -4 13 4 20 2 20 -7 1 -8 6 -6 15 6 7 10
19 15 25 11 6 -4 17 -1 25 5 12 10 15 10 16 -1 1 -8 4 -1 8 15 6 28 7 28 23
13 9 -9 19 -36 23 -59 11 -64 24 -82 25 -33 1 112 -75 218 -182 254 -76 26
-81 26 -73 1 6 -18 2 -20 -49 -20 -31 0 -56 3 -56 8 0 13 -49 87 -50 75z"/>
<path d="M2417 8149 c-9 -5 -24 -23 -32 -39 -13 -25 -22 -30 -50 -30 -59 0
-114 -28 -135 -70 l-19 -37 -105 -17 c-58 -9 -123 -16 -145 -16 -74 0 -115
-37 -76 -70 17 -14 95 -9 175 12 30 8 76 18 102 22 43 7 46 6 41 -13 -3 -14 5
-30 26 -51 35 -36 51 -32 51 11 0 29 12 46 64 86 24 19 26 25 16 38 -16 19
-23 15 83 50 49 17 94 33 100 38 18 11 -21 37 -55 37 -34 0 -37 22 -6 44 21
15 21 16 3 16 -11 0 -28 -5 -38 -11z"/>
<path d="M2470 8015 c-68 -31 -99 -55 -71 -55 6 0 17 -13 26 -29 14 -28 17
-29 52 -19 56 15 201 88 207 105 9 21 -21 27 -65 13 -34 -11 -41 -11 -57 3
-16 15 -23 13 -92 -18z"/>
<path d="M2554 7922 c-39 -15 -77 -32 -85 -39 -8 -7 -28 -44 -44 -84 -26 -62
-35 -74 -72 -92 -54 -27 -82 -15 -123 50 -17 26 -42 54 -56 61 -22 11 -24 18
-19 45 l7 32 -25 -25 c-17 -17 -26 -38 -28 -65 -4 -77 -1 -85 36 -101 22 -9
42 -28 54 -52 38 -70 53 -75 242 -76 l167 -1 44 -30 c32 -23 74 -77 163 -212
114 -173 122 -182 153 -182 41 -1 108 58 151 132 28 48 29 53 14 69 -12 14
-19 15 -29 7 -11 -9 -16 -5 -23 14 -7 19 -15 24 -30 20 -15 -4 -21 -1 -21 11
0 9 -7 16 -15 16 -9 0 -20 12 -25 26 -9 22 -13 24 -25 14 -12 -10 -18 -7 -32
19 -13 22 -25 31 -44 31 -46 0 -63 21 -55 68 l6 42 -41 0 c-31 0 -40 3 -36 14
3 7 8 34 12 59 7 43 6 45 -14 40 -15 -4 -22 1 -27 21 -6 27 -18 33 -29 16 -9
-15 -25 -12 -25 5 0 8 -7 15 -15 15 -15 0 -82 -34 -99 -51 -24 -22 -36 -8 -36
39 0 85 5 92 59 84 71 -11 144 -9 148 5 4 10 -93 84 -107 82 -3 0 -37 -13 -76
-27z"/>
<path d="M2374 7844 c-24 -10 -40 -10 -68 -2 -20 6 -38 9 -41 6 -3 -3 -7 -25
-8 -48 -3 -76 69 -107 116 -51 21 25 45 98 35 106 -2 1 -17 -4 -34 -11z"/>
<path d="M5228 7704 c-15 -22 -35 -61 -44 -87 -9 -26 -34 -67 -56 -90 -140
-147 -182 -187 -201 -193 -12 -3 -34 -18 -49 -31 -32 -31 -103 -41 -148 -23
-17 7 -44 31 -59 54 -16 23 -40 51 -54 64 l-24 23 -44 -20 c-24 -11 -52 -22
-61 -25 -28 -8 -22 -18 37 -65 30 -24 55 -48 55 -52 0 -5 -16 -9 -35 -9 -24 0
-52 12 -92 40 -39 27 -69 40 -90 40 -18 0 -33 -4 -33 -8 0 -4 16 -24 35 -42
47 -46 44 -74 -8 -78 -34 -3 -46 3 -97 47 -47 41 -66 51 -94 51 -20 0 -36 -2
-36 -5 0 -3 14 -28 31 -56 l32 -51 -22 -106 c-63 -316 -65 -324 -85 -334 -11
-6 -70 -26 -130 -45 -60 -18 -111 -35 -114 -37 -2 -2 33 -2 78 1 l81 6 -33
-48 c-18 -26 -43 -61 -56 -79 -27 -38 -72 -101 -92 -130 -19 -28 -211 -297
-225 -315 -40 -54 -73 -79 -115 -86 -62 -10 -314 -66 -319 -71 -5 -5 15 -12
63 -22 l40 -8 -93 -68 c-184 -135 -334 -274 -402 -372 -54 -79 -83 -194 -50
-194 5 0 23 10 42 23 19 12 65 41 103 62 67 39 105 61 197 116 24 14 85 50
134 79 50 29 104 61 120 71 17 10 44 26 60 35 152 84 373 224 476 303 69 53
138 105 154 116 15 11 39 29 54 41 107 85 170 129 228 161 58 32 77 38 128 37
33 0 66 -2 74 -4 14 -5 35 23 196 260 36 52 85 124 110 160 25 36 71 102 102
148 l56 82 -33 143 c-18 78 -35 147 -37 154 -5 13 61 35 82 27 7 -3 40 8 74
25 92 47 141 38 141 -26 0 -11 17 -29 41 -43 31 -19 39 -30 36 -47 -3 -17 7
-32 43 -62 l47 -40 19 41 18 41 -62 56 -62 56 -3 224 -2 224 -27 -39z m-508
-496 c48 -51 17 -175 -89 -363 -21 -37 -182 -208 -189 -200 -2 1 39 79 91 171
120 217 167 305 167 317 0 5 -13 26 -30 47 -16 21 -30 41 -30 44 0 16 61 4 80
-16z"/>
<path d="M5383 7670 c7 -9 38 -45 70 -80 58 -64 58 -64 116 -66 91 -4 186 -57
175 -98 -7 -28 29 -74 70 -92 39 -16 86 -60 86 -79 0 -12 -16 -15 -74 -15 -88
0 -119 -17 -109 -62 8 -43 58 -68 132 -68 l62 0 -7 -50 c-6 -45 -14 -58 -68
-113 -124 -126 -131 -142 -100 -237 23 -72 31 -75 122 -62 42 7 87 12 100 12
l22 0 0 -306 c0 -325 0 -328 -55 -489 -7 -22 -37 -114 -66 -205 l-52 -165 -71
-57 c-87 -71 -180 -121 -288 -155 -69 -21 -102 -26 -198 -26 -140 0 -252 28
-392 98 -127 63 -188 108 -188 140 0 29 -26 45 -74 45 -31 0 -36 3 -36 24 0
14 -13 37 -29 53 l-28 28 32 40 c69 84 71 152 12 390 -8 33 -23 95 -33 138
l-18 79 -33 -5 c-68 -11 -307 -152 -448 -264 -16 -13 -39 -30 -50 -38 -90 -66
-502 -412 -630 -530 -22 -20 -53 -44 -70 -52 -16 -9 -70 -39 -120 -69 -90 -53
-113 -61 -279 -107 l-88 -24 107 -6 c60 -4 132 -7 161 -7 29 0 55 -4 59 -9 3
-6 43 -21 89 -35 142 -44 358 -29 506 35 l48 21 108 -26 c60 -14 134 -33 164
-41 30 -8 96 -24 146 -35 50 -11 102 -24 116 -29 27 -10 48 1 48 27 0 15 21
12 75 -8 26 -10 27 -22 9 -80 -3 -8 -16 -69 -29 -134 l-24 -120 72 -80 c40
-44 89 -98 109 -120 41 -45 47 -60 21 -52 -54 15 -83 17 -83 6 0 -6 9 -32 20
-58 10 -26 35 -90 55 -142 20 -52 47 -122 60 -155 12 -33 42 -109 65 -170 23
-60 53 -137 65 -170 13 -33 35 -91 50 -130 14 -38 32 -85 40 -103 8 -18 15
-35 15 -38 0 -16 -23 17 -81 115 -35 61 -67 111 -71 111 -7 0 22 -87 72 -215
17 -44 36 -93 42 -110 5 -16 21 -58 34 -92 31 -80 30 -85 -8 -35 -18 23 -35
42 -39 42 -4 0 6 -35 23 -77 16 -43 33 -89 37 -103 5 -14 18 -49 31 -78 l23
-52 34 26 c29 22 33 23 24 7 -5 -11 -27 -40 -47 -64 -28 -34 -33 -45 -21 -47
20 -4 24 -102 11 -270 -5 -62 -2 -79 17 -118 16 -35 22 -68 24 -133 5 -138 76
-333 216 -586 97 -176 97 -176 57 -135 -18 20 -50 56 -71 80 -21 25 -33 34
-27 21 12 -24 155 -247 185 -288 16 -23 20 -23 210 -23 210 0 212 1 178 50
-26 37 -83 132 -83 138 0 3 -11 22 -24 41 -22 35 -198 330 -238 401 l-20 35
24 -26 c12 -15 43 -57 68 -93 62 -92 143 -203 138 -191 -1 6 -27 58 -56 117
-53 109 -65 143 -34 97 9 -15 29 -45 44 -67 44 -66 48 -57 12 29 -19 44 -34
85 -34 90 0 6 35 -17 77 -50 42 -33 79 -58 81 -56 3 2 -4 35 -16 72 -11 37
-32 109 -46 158 -14 50 -44 155 -67 235 -63 221 -65 229 -43 250 11 9 123 79
249 154 127 76 345 207 485 291 l255 155 48 87 c52 97 53 101 21 238 -22 93
-71 268 -94 330 -22 62 -118 309 -135 350 -53 122 -146 323 -205 443 l-70 143
0 183 0 183 -24 11 c-13 6 -44 16 -68 23 l-43 12 62 14 c69 16 58 2 173 218
24 44 60 112 82 151 l38 71 -26 124 c-14 68 -37 176 -50 239 -41 195 -41 177
-1 193 l35 15 -15 59 c-8 32 -23 90 -34 128 -10 39 -19 75 -19 81 0 7 27 40
60 74 37 37 71 84 86 118 25 56 46 174 36 200 -2 7 9 28 26 45 41 43 48 78 28
132 -20 51 -97 127 -203 197 l-70 47 -6 68 c-4 37 -7 85 -7 106 l0 37 -70 0
c-49 0 -93 -8 -147 -26 -72 -24 -88 -26 -193 -21 -85 4 -141 13 -217 35 -85
24 -100 26 -90 12z m643 -340 c110 -56 200 -107 202 -115 4 -19 3 -19 -43 1
-28 11 -40 13 -49 4 -8 -9 -2 -19 24 -41 l34 -29 -27 0 c-18 0 -27 -5 -27 -15
0 -14 -3 -14 -29 0 -21 10 -56 14 -118 13 -48 0 -111 -1 -139 -1 -57 -1 -110
17 -118 39 -9 23 38 46 91 43 82 -3 119 1 137 14 29 21 9 42 -82 85 -110 52
-125 63 -116 85 12 33 61 17 260 -83z m-36 -394 c0 -8 -17 -28 -37 -45 -87
-72 -107 -106 -36 -59 86 57 95 60 107 48 8 -9 1 -20 -28 -46 -34 -29 -36 -34
-18 -34 25 0 27 -12 10 -43 -7 -12 -13 -31 -13 -42 0 -18 -7 -20 -80 -21 -82
-1 -99 6 -89 39 4 13 0 17 -19 17 -14 0 -27 6 -30 13 -7 18 15 66 49 106 48
57 184 107 184 67z m-535 -2573 c22 -34 69 -109 104 -165 36 -57 87 -137 114
-178 38 -58 47 -80 43 -102 -4 -22 0 -31 24 -48 17 -12 30 -27 30 -33 0 -7
-29 -53 -65 -102 -36 -50 -84 -117 -107 -150 -22 -33 -50 -72 -62 -86 -12 -14
-28 -36 -36 -49 -38 -56 -83 -109 -90 -105 -4 2 -10 46 -14 97 -3 51 -11 156
-16 233 -5 77 -14 178 -20 225 -5 47 -17 183 -26 304 l-15 219 28 29 28 29 20
-28 c11 -15 38 -55 60 -90z"/>
<path d="M3210 7399 c0 -27 -77 -175 -111 -214 -19 -21 -55 -48 -82 -60 -47
-22 -47 -23 -25 -38 13 -8 37 -28 53 -44 17 -16 58 -52 92 -82 l63 -53 86 44
87 43 37 80 c21 44 36 84 33 89 -3 4 -18 5 -34 2 -24 -5 -36 3 -96 65 -56 58
-70 79 -79 120 -11 50 -24 75 -24 48z"/>
<path d="M5411 7335 c23 -66 24 -92 3 -154 -8 -27 -14 -62 -12 -77 3 -26 7
-29 42 -29 34 0 41 4 57 35 12 21 19 55 19 88 0 50 -4 58 -51 116 -71 85 -82
89 -58 21z"/>
<path d="M3512 7216 c-10 -17 -32 -63 -50 -103 -68 -148 -73 -156 -141 -190
-76 -38 -94 -53 -63 -53 20 0 30 -19 16 -32 -8 -9 -78 22 -87 38 -7 13 -67 21
-67 9 0 -3 17 -29 38 -58 21 -29 49 -71 62 -94 14 -26 42 -54 72 -72 48 -30
52 -31 177 -31 l129 0 12 30 c8 20 18 29 29 26 9 -2 42 -7 74 -11 57 -6 59 -6
100 31 48 44 55 54 33 54 -19 0 -19 -8 0 109 18 111 28 143 55 167 25 23 24
37 -7 83 -24 37 -27 38 -62 30 -20 -5 -48 -9 -62 -9 -22 0 -21 3 17 28 24 15
43 30 43 33 0 3 -53 13 -117 22 -195 27 -181 28 -201 -7z"/>
<path d="M4940 6900 c-17 -27 -44 -65 -58 -84 -15 -18 -33 -42 -39 -52 -7 -11
-38 -55 -70 -99 -31 -44 -71 -102 -89 -130 -18 -27 -61 -90 -95 -140 l-61 -90
10 -65 c6 -36 23 -119 38 -185 34 -150 41 -269 20 -332 -23 -67 -9 -81 39 -40
22 19 54 40 70 49 182 91 290 159 320 200 49 68 51 75 7 33 -28 -26 -65 -47
-110 -62 -187 -64 -213 -73 -226 -73 -8 0 -17 23 -24 63 -6 34 -22 115 -36
180 -24 109 -34 217 -20 217 3 0 32 -21 63 -47 32 -27 70 -57 86 -68 15 -11
43 -33 61 -49 19 -15 34 -23 34 -18 0 6 -5 14 -10 17 -6 4 -21 22 -33 40 -12
19 -57 79 -99 134 -43 55 -78 105 -78 111 0 9 21 47 37 70 2 2 56 -48 120
-110 77 -77 109 -103 96 -80 -11 19 -48 86 -82 147 l-62 112 38 71 c21 38 43
70 49 70 6 0 71 -61 143 -136 72 -75 131 -132 131 -127 0 5 -11 22 -25 38 -14
17 -55 71 -93 121 -124 167 -116 152 -103 195 13 42 78 104 95 90 13 -9 105
-81 123 -96 7 -5 23 -18 35 -27 13 -10 61 -49 108 -88 84 -69 104 -75 78 -25
-24 46 -322 315 -348 315 -5 0 -22 -22 -40 -50z"/>
<path d="M5651 6668 c-73 -118 -146 -227 -153 -227 -5 -1 -8 19 -8 42 0 38 -4
45 -27 56 -35 16 -38 13 -34 -24 2 -23 0 -27 -11 -19 -7 6 -40 28 -73 49 -33
21 -76 49 -96 62 -63 41 -55 25 27 -59 l81 -83 -11 -150 -11 -151 -97 -109
c-53 -61 -95 -112 -93 -114 3 -2 43 15 91 38 48 23 89 39 92 37 2 -3 -39 -102
-93 -221 -53 -119 -95 -218 -93 -221 3 -2 38 30 78 71 40 42 74 74 75 73 1 -2
-1 -48 -6 -103 -8 -100 -10 -199 -4 -180 2 6 15 53 30 105 15 52 35 122 45
155 10 33 30 103 45 155 15 52 38 130 51 173 21 68 24 99 24 232 0 87 4 156
10 160 5 3 18 0 28 -6 15 -9 30 -5 85 25 37 21 67 35 67 32 0 -2 -32 -66 -71
-141 -39 -75 -69 -138 -67 -141 3 -2 36 23 74 56 l69 60 3 -46 c3 -38 -4 -63
-37 -130 -35 -74 -38 -85 -23 -93 18 -10 14 -21 -29 -88 l-21 -33 36 0 c20 0
36 -3 36 -7 0 -13 -31 -96 -45 -123 -7 -14 -28 -61 -45 -105 -18 -44 -41 -98
-50 -120 -54 -123 -80 -186 -80 -195 0 -6 15 -10 33 -10 36 0 37 2 177 265 24
44 62 114 85 155 23 41 62 111 85 155 24 44 58 108 77 143 18 34 31 62 28 62
-4 0 -26 -14 -51 -30 -24 -17 -44 -27 -44 -22 0 5 20 46 45 91 64 120 66 133
14 84 -24 -23 -45 -40 -47 -38 -5 4 7 38 33 99 18 42 16 43 -38 21 -17 -7 -18
-6 -3 30 24 57 19 61 -19 20 -20 -20 -37 -36 -38 -34 -1 2 0 64 3 137 l5 132
-27 20 c-14 10 -29 33 -33 50 -4 16 -10 30 -14 30 -5 0 -23 -24 -40 -52z"/>
<path d="M3874 6626 c-56 -12 -254 -97 -254 -108 0 -5 40 -8 88 -8 49 0 91 -3
95 -6 3 -4 -19 -37 -50 -75 -44 -55 -63 -71 -97 -80 -150 -40 -546 -221 -737
-336 -389 -235 -627 -510 -674 -778 -19 -112 -19 -145 0 -145 13 0 218 81 364
143 l35 15 1 73 c2 115 49 202 178 331 77 77 92 90 200 167 l69 49 -36 28
c-20 16 -36 34 -36 41 0 15 288 107 400 128 55 10 89 21 98 33 7 9 23 28 35
42 113 124 387 474 387 494 0 7 2 7 -66 -8z"/>
<path d="M5715 5650 c-59 -105 -105 -193 -102 -197 3 -3 19 4 35 16 17 12 34
21 39 21 25 1 72 58 81 100 6 25 22 90 36 145 14 54 24 101 22 102 -2 2 -52
-82 -111 -187z"/>
<path d="M4863 2584 c-3 -9 8 -66 26 -127 17 -62 31 -116 31 -121 0 -5 -22 20
-50 54 l-50 63 0 -37 0 -36 -27 17 -26 17 6 -54 6 -55 -24 49 c-13 27 -27 58
-31 70 -13 37 -16 -46 -5 -111 16 -86 47 -122 148 -173 48 -25 90 -46 94 -48
3 -1 14 14 24 34 16 33 16 39 1 78 -15 40 -61 222 -85 339 -12 56 -26 72 -38
41z"/>
<path d="M4490 2490 c-51 -11 -103 -35 -124 -59 -43 -48 8 -256 115 -465 104
-206 217 -418 251 -475 21 -34 38 -65 38 -66 0 -10 85 -129 133 -188 114 -139
214 -190 263 -136 40 45 3 215 -85 389 -63 123 -97 307 -88 472 l6 108 -66 0
c-115 0 -191 54 -233 166 -18 49 -21 75 -18 161 l3 103 -80 -1 c-44 -1 -96 -5
-115 -9z"/>
<path d="M5240 1487 c0 -1 8 -34 19 -72 10 -39 33 -135 51 -215 18 -80 40
-174 50 -210 10 -36 28 -110 40 -165 12 -55 25 -104 27 -108 3 -4 18 9 34 29
16 20 35 42 42 48 7 6 37 39 66 74 l53 62 -67 0 -66 0 45 59 c25 33 46 64 46
69 0 5 -19 15 -42 22 -48 14 -92 40 -68 40 42 0 237 23 249 30 10 5 4 10 -20
14 -19 4 -79 17 -134 29 l-100 22 50 7 c28 4 71 10 98 13 26 3 47 9 47 13 0 4
-61 27 -135 51 -75 24 -138 48 -141 52 -3 5 55 9 129 9 159 0 294 10 275 21
-7 4 -48 13 -90 19 -43 7 -78 17 -78 21 0 5 15 16 33 26 l32 18 -150 11 c-142
12 -295 17 -295 11z"/>
<path d="M5600 847 c-45 -35 -139 -162 -149 -200 -54 -207 -119 -493 -113
-498 8 -9 266 -109 298 -116 12 -3 87 4 165 16 79 11 170 23 202 27 52 6 61
10 78 38 22 36 26 120 7 163 -16 36 -45 77 -138 199 l-75 98 -6 112 c-5 93
-10 117 -28 143 l-22 31 -102 0 c-65 -1 -108 -5 -117 -13z"/>
</g>
</svg>
