<?xml version="1.0" standalone="no"?>
<!DOCTYPE svg PUBLIC "-//W3C//DTD SVG 20010904//EN"
 "http://www.w3.org/TR/2001/REC-SVG-20010904/DTD/svg10.dtd">
<svg version="1.0" xmlns="http://www.w3.org/2000/svg"
 width="900.000000pt" height="1480.000000pt" viewBox="0 0 900.000000 1480.000000"
 preserveAspectRatio="xMidYMid meet">
<metadata>
Created by potrace 1.16, written by Peter Selinger 2001-2019
</metadata>
<g transform="translate(0.000000,1480.000000) scale(0.100000,-0.100000)"
fill="#000000" stroke="none">
<path d="M5115 14778 c-16 -12 -64 -53 -105 -93 -123 -117 -247 -225 -259
-225 -6 0 -54 40 -108 89 -123 114 -190 155 -251 155 l-46 1 -9 -45 c-12 -63
-1 -246 18 -299 8 -24 15 -52 15 -63 0 -17 -5 -19 -32 -14 -54 10 -71 -13 -54
-75 6 -21 -2 -38 -49 -97 l-57 -73 -22 33 c-30 46 -76 50 -110 11 -19 -22 -27
-25 -37 -16 -18 18 -3 41 33 51 27 8 30 11 15 17 -13 5 -27 -1 -48 -21 -28
-26 -32 -27 -62 -15 -61 24 -68 24 -83 2 -14 -20 -17 -20 -44 -6 -44 23 -87
19 -105 -9 -15 -22 -15 -27 0 -57 14 -25 15 -37 6 -56 -7 -16 -17 -23 -26 -19
-48 18 -60 -32 -16 -65 l29 -21 -19 -32 c-28 -46 -25 -66 10 -66 29 0 41 -14
41 -50 0 -27 -26 -49 -52 -43 -22 4 -22 4 -4 -11 11 -9 24 -16 28 -16 5 0 4
-9 -2 -19 -17 -32 -12 -49 20 -68 21 -12 30 -25 30 -43 1 -52 50 -79 84 -45
32 32 54 3 54 -70 0 -33 6 -45 37 -70 l36 -31 -98 -65 -98 -65 -160 33 c-97
20 -206 36 -277 40 -111 6 -118 5 -119 -13 0 -10 -2 -27 -4 -37 -2 -9 -9 -74
-16 -143 -9 -83 -19 -136 -31 -155 -25 -42 -95 -89 -261 -175 l-147 -77 -218
-255 c-119 -139 -247 -293 -283 -342 -137 -181 -239 -399 -224 -480 4 -19 24
-77 46 -129 54 -126 63 -183 49 -290 -6 -47 -13 -104 -16 -126 -8 -71 -15 -98
-61 -250 -26 -84 -45 -168 -44 -190 0 -22 10 -109 21 -193 16 -125 26 -170 55
-240 20 -48 43 -109 52 -135 l15 -48 -82 -124 c-136 -209 -199 -369 -186 -480
3 -27 6 -51 6 -52 0 -2 9 -3 20 -3 33 0 86 57 128 138 42 80 79 134 68 99 -22
-70 -36 -146 -42 -232 -5 -85 -10 -104 -30 -125 -12 -14 -46 -74 -74 -135 -44
-94 -56 -135 -86 -284 -19 -96 -34 -201 -34 -235 0 -83 -17 -268 -37 -399 -22
-148 -14 -285 22 -397 34 -107 114 -275 194 -410 35 -58 74 -139 88 -180 44
-131 53 -147 84 -160 34 -14 34 -17 13 -71 -16 -39 -16 -43 4 -92 25 -62 52
-276 52 -409 0 -51 5 -133 10 -183 13 -116 16 -149 36 -335 20 -194 46 -321
90 -431 l35 -86 -30 -55 c-16 -31 -34 -88 -41 -126 -15 -88 -5 -141 57 -306
51 -138 51 -142 -7 -306 -35 -99 -38 -116 -49 -295 -6 -104 -13 -203 -16 -220
-3 -16 -7 -118 -10 -225 -3 -107 -11 -260 -18 -340 -20 -236 -16 -341 17 -435
41 -120 103 -240 152 -293 23 -27 46 -60 49 -74 13 -50 -42 -259 -101 -387
-43 -93 -43 -132 -3 -247 41 -118 42 -184 1 -257 -52 -90 -51 -107 7 -167 53
-55 101 -139 101 -176 0 -12 -9 -51 -20 -86 -33 -107 -26 -145 48 -254 33 -49
42 -71 47 -124 9 -88 22 -126 57 -165 63 -72 161 -85 411 -51 128 18 139 21
148 42 8 24 10 24 163 24 160 0 298 -11 451 -35 50 -8 109 -17 133 -20 41 -7
48 -14 145 -133 133 -167 211 -242 337 -328 226 -152 289 -177 450 -176 183 0
404 37 466 77 32 21 107 162 100 189 -10 41 -111 133 -229 210 -74 48 -133 96
-164 132 -26 30 -62 64 -79 75 -55 34 -89 145 -119 389 -8 63 -15 117 -15 119
0 4 -39 -5 -64 -15 -14 -5 -16 5 -16 72 0 44 4 85 9 92 5 9 0 38 -12 75 -18
54 -21 87 -21 242 -1 177 9 264 49 457 8 38 15 100 15 137 0 57 6 81 35 144
33 72 34 78 24 124 -11 46 -10 52 13 89 14 21 46 80 73 129 27 50 83 136 126
192 l78 101 80 264 c44 145 116 404 161 574 100 381 261 954 294 1052 35 103
42 174 22 251 -30 119 -71 185 -396 648 -68 98 -191 275 -274 393 -159 230
-330 460 -480 649 -52 64 -107 143 -124 176 -34 67 -52 87 -132 137 -80 52
-144 123 -173 193 -21 51 -31 63 -67 81 -34 17 -49 34 -78 88 -22 43 -49 77
-76 96 -42 32 -121 60 -165 60 -22 0 -20 3 20 28 58 37 123 111 154 178 14 29
25 57 25 63 0 7 27 8 78 4 89 -6 172 3 172 19 0 6 21 45 47 87 68 108 82 155
69 229 -8 53 -7 62 11 88 41 58 152 293 216 459 93 240 364 971 427 1153 29
83 56 152 59 152 4 0 82 -33 173 -74 284 -127 490 -198 708 -243 139 -28 380
-24 552 9 250 49 272 70 298 283 7 50 47 231 91 404 77 306 129 542 129 587 0
17 8 24 29 29 30 6 60 34 80 73 9 17 17 21 36 16 21 -5 25 -1 34 33 17 62 29
132 36 214 7 76 7 77 -23 109 -25 25 -30 37 -25 63 4 25 -3 43 -30 85 -52 76
-130 163 -182 202 -24 18 -47 42 -51 52 -3 12 7 41 30 78 l35 59 -30 26 c-23
18 -42 25 -74 25 -33 0 -47 5 -54 19 -30 54 -71 264 -96 481 -3 30 -17 141
-30 245 -13 105 -26 216 -30 248 -4 40 -24 94 -65 180 -32 67 -72 169 -89 227
-28 94 -35 109 -75 145 -24 22 -86 65 -137 96 -63 38 -107 73 -134 106 -22 27
-62 62 -90 77 -28 15 -70 51 -95 82 -95 118 -211 213 -390 325 -212 131 -269
164 -330 190 -78 34 -96 35 -135 7z m880 -1775 c42 -39 306 -570 313 -628 3
-35 1 -46 -12 -51 -13 -5 -16 -22 -16 -90 0 -75 -4 -92 -31 -145 -27 -55 -32
-79 -44 -213 -19 -209 -104 -604 -162 -749 l-16 -38 -116 114 c-95 92 -140
128 -246 192 -78 47 -158 87 -200 100 -58 18 -74 28 -92 56 -45 70 -56 81 -97
101 -41 19 -44 24 -61 92 -10 39 -32 98 -48 131 -35 67 -146 184 -219 230 -27
17 -48 35 -48 42 0 19 36 34 103 41 l62 7 -2 38 c-2 33 0 37 22 37 16 0 36 15
62 45 l39 46 34 -14 c19 -8 52 -17 73 -20 32 -5 43 -2 63 18 13 13 24 31 24
40 0 18 8 19 40 0 31 -18 74 -19 100 -3 17 11 24 8 58 -25 42 -41 74 -47 111
-18 21 16 23 24 18 58 -6 38 -5 40 29 56 50 24 66 21 103 -17 41 -42 65 -49
87 -25 13 15 15 31 10 86 -3 37 -8 113 -11 168 -4 55 -15 131 -26 169 -29 100
-28 121 11 161 19 19 39 35 45 35 6 0 24 -12 40 -27z m-2046 -7598 c225 -207
283 -252 375 -289 40 -16 63 -34 81 -60 l25 -37 -21 -30 c-11 -16 -36 -41 -55
-56 -38 -28 -84 -99 -84 -127 0 -10 12 -46 26 -81 l25 -64 -40 -144 -40 -143
-6 -389 c-6 -349 -9 -407 -31 -550 -27 -171 -41 -263 -49 -336 -5 -41 -15 -56
-106 -152 -96 -103 -102 -112 -136 -205 -34 -91 -36 -104 -34 -207 2 -106 0
-112 -33 -180 -34 -71 -97 -163 -180 -266 l-45 -56 49 -56 c28 -30 50 -58 50
-62 0 -3 -17 -29 -38 -58 -22 -29 -49 -79 -62 -111 l-23 -59 -20 24 c-58 70
-96 211 -97 354 -1 119 -22 229 -55 288 -26 46 -27 51 -15 106 7 32 9 69 5 82
-4 13 -33 50 -63 82 -55 57 -56 58 -43 90 127 308 142 406 96 621 -30 139 -30
163 -5 336 17 116 18 150 9 241 -5 58 -18 132 -28 164 -16 50 -16 64 -5 100 6
23 20 88 29 145 17 113 13 105 141 260 58 71 63 81 93 193 17 64 34 145 37
180 3 34 7 73 9 87 2 14 4 155 4 314 l1 289 23 -20 c12 -11 118 -109 236 -218z"/>
</g>
</svg>
